<svg xmlns="http://www.w3.org/2000/svg" viewBox="0 0 32 32">
  <circle cx="16" cy="16" r="15" fill="#0EA5E9" />
  <path d="M16 6c-2 0-3.5 1.5-3.5 4 0 1.5.5 3 1 4.5l1.5 5c.3 1 .6 1.5 1 1.5s.7-.5 1-1.5l1.5-5c.5-1.5 1-3 1-4.5C19.5 7.5 18 6 16 6z" fill="white"/>
  <path d="M12.5 10c-1-.5-2.5 0-3 2-.3 1.2 0 2.5.5 4l1.5 4c.2.6.5.8.8.5.2-.2.2-.6.1-1l-.8-3c-.2-.8 0-1.5.5-1.8" fill="white" opacity="0.8"/>
  <path d="M19.5 10c1-.5 2.5 0 3 2 .3 1.2 0 2.5-.5 4l-1.5 4c-.2.6-.5.8-.8.5-.2-.2-.2-.6-.1-1l.8-3c.2-.8 0-1.5-.5-1.8" fill="white" opacity="0.8"/>
</svg>
